# xmcd
#
# Track frame offsets:
#	150
#	15630
#	28965
#	40842
#	56175
#	69187
#	83865
#	97477
#	113242
#	135610
#	154167
#	167482
#	186890
#	203480
#	222667
#	240240
#	257125
#	272912
#	285407
#	299845
#
# Disc length: 4232
#
# Revision: 1
# Processed by: cddbd v1.5.1PL0 Copyright (c) Steve Scherf et al.
# Submitted via: VisiTrax 2.9.5.180 - For more info visit www.synapsa.com
# Normalized: r0:DSETVAR1
#
DISCID=31108614
DTITLE=Various Artist - The Best of todays country music-Live
DYEAR=1999
DGENRE=
TTITLE0=Mary Chapin Carpenter - Down at the twist and shout
TTITLE1=Hal Ketchum - Small town saturday night
TTITLE2=Mark Chesnutt - Blame it on Texas
TTITLE3=Kathy Mattea - Eighteen wheels and a dozen roses
TTITLE4=Desert Rose Band - Love reunited
TTITLE5=Restless Heart - That rock won't roll
TTITLE6=Travis Tritt - Country Club
TTITLE7=Ricky Van Shelton - Backroads
TTITLE8=Marty Stuart - Burn me down
TTITLE9=Dwight oakam - Mudd Water
TTITLE10=Trisha Yearwood - Wrong side of Memphis
TTITLE11=The Judds - Grandpa (tell me 'bout the good old days)
TTITLE12=Randy Travis - Forever and ever, amen
TTITLE13=Steve Wariner - Life's highway
TTITLE14=Foster and Lloyd - Texas in 1880
TTITLE15=Radney Foster - Nobod wins
TTITLE16=Joe Diffie - Honky tonk attitude
TTITLE17=George Strait - Amarillo by morning
TTITLE18=Sweethearts of the Rodeo - Midnight girl/Sunset town
TTITLE19=Bellamy Brothers - Old hippie
EXTD=
EXTT0=
EXTT1=
EXTT2=
EXTT3=
EXTT4=
EXTT5=
EXTT6=
EXTT7=
EXTT8=
EXTT9=
EXTT10=
EXTT11=
EXTT12=
EXTT13=
EXTT14=
EXTT15=
EXTT16=
EXTT17=
EXTT18=
EXTT19=
PLAYORDER=
